<svg id="Layer_1" data-name="Layer 1" xmlns="http://www.w3.org/2000/svg" viewBox="0 0 263.82 155.44"><defs><style>.cls-1{fill:#332821;}</style></defs><title>drill</title><path class="cls-1" d="M95.05,126.9l-55.82-1.1a7.09,7.09,0,0,0-4.73,1.88,6.57,6.57,0,0,0-2,4.69v33.94a6.57,6.57,0,0,0,6.57,6.56H94.93a6.56,6.56,0,0,0,6.56-6.56V133.46A6.57,6.57,0,0,0,95.05,126.9Zm-6.69,32.84H45.67V139.07l42.69.83Z" transform="translate(-11.73 -41.51)"/><path class="cls-1" d="M43.48,82h78.81a6.57,6.57,0,1,0,0-13.13H43.48a6.57,6.57,0,1,0,0,13.13Z" transform="translate(-11.73 -41.51)"/><path class="cls-1" d="M139.81,91.87H63.18a6.57,6.57,0,1,0,0,13.13h76.63a6.57,6.57,0,1,0,0-13.13Z" transform="translate(-11.73 -41.51)"/><path class="cls-1" d="M269,72.16H202.21v-12a6.58,6.58,0,0,0-6.57-6.57h-17.2l-5.72-9a6.59,6.59,0,0,0-5.54-3H18.3a6.57,6.57,0,0,0-6.57,6.57V190.39A6.57,6.57,0,0,0,18.3,197h98.52a6.57,6.57,0,0,0,6.57-6.57V143.32H161.7a6.54,6.54,0,0,0,5.74-3.38l9.07-16.33h19.13a6.57,6.57,0,0,0,6.57-6.57v-7.66H269a6.57,6.57,0,0,0,6.57-6.57V78.73A6.57,6.57,0,0,0,269,72.16Zm-79.91,38.32H172.65a6.55,6.55,0,0,0-5.74,3.37l-9.07,16.33h-41a6.57,6.57,0,0,0-6.57,6.57v47.07H24.87V54.65h138.7l5.73,9a6.56,6.56,0,0,0,5.54,3h14.23Zm73.34-14.23h-60.2v-11h60.2Z" transform="translate(-11.73 -41.51)"/></svg>