<svg id="Layer_1" data-name="Layer 1" xmlns="http://www.w3.org/2000/svg" viewBox="0 0 268.85 225.26"><defs><style>.cls-1{fill:#332821;}</style></defs><title>trowel</title><path class="cls-1" d="M241.1,6.55a32.21,32.21,0,0,0-17.22,4.82c-11.24,7-81.17,66.28-86.54,75.67-2.87,5-2.35,11.89,1.4,18.35a29.45,29.45,0,0,0,2.34,3.34l-7.52,33.06c-22.11-10.06-44.17-17.73-53.12-17.73a16.3,16.3,0,0,0-3.26.3C64.1,127,17.38,193,10.84,214.61c-.7,2.32-2.83,9.37,1.68,13.88,2.35,2.35,5.88,3.31,12.18,3.31,27.24,0,154.5-27.61,165.26-42.41,2.23-3.06,2.4-7,.45-10.81-4.26-8.39-23.33-20.39-44.69-31l6.88-30.26a25.36,25.36,0,0,0,9.41,1.84,27.32,27.32,0,0,0,5.31-.53c18.58-3.72,85-40.62,104.32-62.27,7.22-8.07,8.89-18.24,4.57-27.89C270.53,15.77,255.77,6.55,241.1,6.55ZM177.57,182.78C159.85,192.84,56.24,218.67,24.7,218.67c-.57,0-1.07,0-1.51,0,4.24-16.51,46.65-75.36,56.94-81.44h.31c8,0,26.61,6.8,45.54,15.41L84.09,175.38a6.57,6.57,0,0,0,6.26,11.55l50.28-27.33C157.87,168.24,173,177.34,177.57,182.78ZM261.85,47.6c-17.79,19.89-82.79,55.28-97.1,58.15a13.06,13.06,0,0,1-10-2.11,6.52,6.52,0,0,0-4.27-4.25c-.07-.11-.16-.22-.23-.32-1.77-2.92-1.73-5.1-1.56-5.44,4.42-6.71,70.4-63.85,82.09-71.09a19.32,19.32,0,0,1,10.31-2.86c9.42,0,19.57,6.22,23.12,14.15C266.42,38.75,265.62,43.39,261.85,47.6Z" transform="translate(-9.72 -6.55)"/></svg>